<?xml version="1.0" encoding="iso-8859-1"?>
<!-- Generator: Adobe Illustrator 19.0.0, SVG Export Plug-In . SVG Version: 6.00 Build 0)  -->
<svg version="1.1" id="Layer_1" xmlns="http://www.w3.org/2000/svg" xmlns:xlink="http://www.w3.org/1999/xlink" x="0px" y="0px"
	 viewBox="0 0 511.2 511.2" style="enable-background:new 0 0 511.2 511.2;" xml:space="preserve">
<path style="fill:#FFCC80;" d="M456.762,54.742c29.6,29.6,38,78,23.6,136.4c-15.2,61.6-54,126-108.8,181.2
	c-71.2,71.2-160.8,115.6-233.2,115.6c-35.2,0-64-10.4-84-30.4c-29.6-29.6-38-78-23.6-136c15.2-61.6,54-126,108.8-181.2
	c53.6-53.6,117.2-91.6,176-107.6l57.2-8C407.562,24.341,436.762,34.742,456.762,54.742z M349.962,161.541
	c22.8,22.8,48.8,36.8,68.4,38.8c-2-19.6-16-45.6-38.8-68.4s-48.8-36.8-68.4-38.8C313.162,112.742,327.162,138.742,349.962,161.541z
	 M92.762,311.541c2,19.6,16,45.6,38.8,68.4s48.8,36.8,68.4,38.8c-2-19.6-16-45.6-38.8-68.4
	C138.362,327.541,112.362,313.541,92.762,311.541z M340.362,340.742c-2.8-30.8-25.2-72-61.6-108.4c-36.4-36.4-77.2-58.4-108.4-61.6
	c2.8,30.8,25.2,72,61.6,108.4C268.362,315.541,309.562,337.941,340.362,340.742z"/>
<g>
	<path style="fill:#FF7043;" d="M418.362,200.341c-19.6-2-45.6-16-68.4-38.8c-22.8-22.8-36.8-48.8-38.8-68.4
		c19.6,2,45.6,16,68.4,38.8C402.362,154.742,416.362,180.742,418.362,200.341z"/>
	<path style="fill:#FF7043;" d="M278.762,232.341c36.4,36.4,58.4,77.2,61.6,108.4c-30.8-2.8-72-25.2-108.4-61.6
		s-58.4-77.2-61.6-108.4C201.562,173.941,242.762,196.341,278.762,232.341z"/>
	<path style="fill:#FF7043;" d="M161.162,350.341c22.8,22.8,36.8,48.8,38.8,68.4c-19.6-2-45.6-16-68.4-38.8
		c-22.8-22.8-36.8-48.8-38.8-68.4C112.362,313.541,138.362,327.541,161.162,350.341z"/>
	<path style="fill:#FF7043;" d="M54.362,457.141c20,20,49.2,30.4,84,30.4c72.4,0,162-44.4,233.2-115.6
		c54.8-54.8,93.6-119.2,108.8-181.2c14.4-58.4,6-106.4-23.6-136.4c-20-20-48.8-30.4-84-30.4l-57.2,8c-59.2,15.6-122.8,54-176,107.6
		c-54.8,54.8-93.6,119.2-108.8,181.2C16.362,379.141,24.762,427.541,54.362,457.141z M470.762,40.742c72,72,33.6,226.4-85.2,345.6
		c-118.8,118.8-273.6,157.2-345.6,85.2s-33.6-226.4,85.2-345.6C244.362,6.742,399.162-31.258,470.762,40.742z"/>
</g>
<path d="M138.362,511.141c-40.4,0-75.6-12-100.8-37.2c-36-35.6-46.4-92.4-30-158.8c16.4-66,57.2-134.4,115.2-192.4
	s126.4-98.8,192.4-115.2c66.8-16.4,123.2-5.6,158.8,30c73.2,73.2,35.2,230.8-85.2,351.2
	C309.562,467.941,214.762,511.141,138.362,511.141z M372.762,8.341c-17.6,0-36.4,2.4-56,7.2c-64.4,16-131.6,56-188.4,113.2l0,0
	c-57.2,56.8-97.2,124-113.2,188.4c-15.6,64-6,117.6,28,151.2c70,70,222.8,32,339.6-85.2c117.2-117.2,155.2-269.6,85.2-340
	C444.762,20.341,411.962,8.341,372.762,8.341z"/>
<path d="M138.362,491.541c-36,0-66-10.8-86.8-31.6c-30.8-30.8-39.6-80.4-24.8-140c15.2-62.4,54.4-127.2,110-182.8
	c52.8-52.8,117.6-92.4,178-108.4c2-0.4,4.4,0.8,4.8,2.8c0.4,2-0.8,4.4-2.8,4.8c-58.8,15.6-122.4,54.4-174.4,106.4
	c-54.4,54.4-92.8,118-107.6,179.2c-14,56.8-6,104,22.8,132.4c19.2,19.2,47.2,29.2,81.2,29.2c71.6,0,159.6-44,230.4-114.4
	c54.4-54.4,92.8-118,107.6-179.2c14-56.8,6-104-22.8-132.4c-19.2-19.2-47.2-29.2-81.2-29.2c-2.4,0-4-1.6-4-4s1.6-4,4-4
	c36,0,66,10.8,86.8,31.6c30.8,30.8,39.6,80.4,24.8,140c-15.6,62.4-54.4,127.6-110,182.8
	C302.362,446.742,211.962,491.541,138.362,491.541z"/>
<path d="M340.362,344.742L340.362,344.742c-33.2-3.2-75.6-27.2-111.2-62.8c-35.6-35.6-59.6-78-62.8-110.8c0-1.2,0.4-2.4,1.2-3.2
	c0.8-0.8,2-1.2,3.2-1.2c32.8,3.2,75.2,27.2,110.8,62.8l0,0l0,0c35.6,35.6,59.6,78,62.8,110.8c0,1.2-0.4,2.4-1.2,3.2
	S341.562,344.742,340.362,344.742z M175.162,175.541c4.8,30.4,27.2,68.4,59.6,100.8c32.4,32.4,70.4,54.8,100.8,59.6
	c-4.8-30.4-27.2-68.4-59.6-100.8l0,0C243.562,202.742,205.562,180.341,175.162,175.541z"/>
<path d="M199.962,422.742C199.962,422.742,199.562,422.742,199.962,422.742c-21.6-2-48.4-16.8-71.2-40c-22.8-22.8-38-49.6-40-70.8
	c0-1.2,0.4-2.4,1.2-3.2s2-1.2,3.2-1.2c21.2,2,48,16.8,70.8,40l0,0c22.8,23.2,38,49.6,40,70.8c0,1.2-0.4,2.4-1.2,3.2
	S201.162,422.742,199.962,422.742z M97.562,316.341c3.6,18.4,17.2,41.2,36.8,60.8c19.6,19.6,42.4,33.2,60.8,36.8
	c-3.6-18.4-17.2-41.2-36.8-60.8l0,0C138.762,333.541,115.962,319.941,97.562,316.341z"/>
<path d="M418.362,204.341C418.362,204.341,417.962,204.341,418.362,204.341c-22-2-48.4-16.8-71.2-40c-22.8-22.8-38-49.6-40-70.8
	c0-1.2,0.4-2.4,1.2-3.2c0.8-0.8,2-1.2,3.2-1.2c21.2,2,48,16.8,70.8,40l0,0c22.8,22.8,38,49.6,40,70.8c0,1.2-0.4,2.4-1.2,3.2
	S419.562,204.341,418.362,204.341z M315.962,97.941c3.6,18.4,17.2,41.2,36.8,60.8c19.6,19.6,42.4,33.2,60.8,36.8
	c-3.6-18.4-17.2-41.2-36.8-60.8C357.162,115.141,334.362,101.541,315.962,97.941z"/>
<g>
</g>
<g>
</g>
<g>
</g>
<g>
</g>
<g>
</g>
<g>
</g>
<g>
</g>
<g>
</g>
<g>
</g>
<g>
</g>
<g>
</g>
<g>
</g>
<g>
</g>
<g>
</g>
<g>
</g>
</svg>
